<?xml version="1.0" standalone="no"?>
<svg xmlns="http://www.w3.org/2000/svg" viewBox="0 0 232.53841269841274 50.8" width="232.53841269841274" height="50.8"><rect fill="#fe4e01" width="232.53841269841274" height="50.8" x="0" y="0"></rect><g fill="white" color="white" transform="translate(195.441 12) scale(0.4253969)"><svg width="59.0" height="63.0" x="0.0" y="0.0" viewBox="0 0 59 63"><defs><style>

      .cls-3 {
        fill:currentColor;
      }
    </style></defs><path style="" d="M 31.5 0 C 14.131 0 3.7392476e-017 14.131 0 31.5 C 0 48.869 14.131 63 31.5 63 C 42.105 63 51.92325 57.70775 57.78125 48.84375 C 58.23725 48.15475 58.03275 47.208 57.34375 46.75 L 34.53125 31.5625 L 58.09375 17.53125 C 58.80375 17.10825 59.046 16.17975 58.625 15.46875 C 52.975 5.91475 42.581 -4.1182335e-017 31.5 0 z M 31.5 3 C 41.027 3 49.96375 7.85 55.21875 15.75 L 30.9375 30.1875 C 30.4955 30.4505 30.23275 30.9225 30.21875 31.4375 C 30.20575 31.9525 30.446 32.43375 30.875 32.71875 L 54.40625 48.40625 C 49.03425 55.68725 40.596 60 31.5 60 C 15.785 60 3 47.215 3 31.5 C 3 15.785 15.785 3 31.5 3 z M 28.59375 10.34375 C 25.13275 10.34375 22.3125 13.164 22.3125 16.625 C 22.3125 20.085 25.13275 22.90625 28.59375 22.90625 C 32.05375 22.90625 34.875 20.085 34.875 16.625 C 34.875 13.164 32.05375 10.34375 28.59375 10.34375 z M 28.59375 13.34375 C 30.39975 13.34375 31.875 14.818 31.875 16.625 C 31.875 18.431 30.39975 19.90625 28.59375 19.90625 C 26.78675 19.90625 25.3125 18.431 25.3125 16.625 C 25.3125 14.818 26.78675 13.34375 28.59375 13.34375 z " fill="currentColor" fill-rule="evenodd"></path></svg></g><path fill="white" fill-rule="nonzero" d="M18 24.16L18 24.16Q14.44 26.80 9.60 26.80Q4.76 26.80 2.38 23.52Q0 20.24 0 13.48L0 13.48Q0 0 10.04 0L10.04 0Q12.84 0 14.80 1.10Q16.76 2.20 17.60 4.24L17.60 4.24Q17.84 4.96 17.84 5.80L17.84 5.80Q17.84 8.20 15.76 8.20L15.76 8.20Q14.52 8.20 13.84 7.44Q13.16 6.68 13.16 5.48Q13.16 4.28 13.64 3.60L13.64 3.60Q12.36 2.36 10.04 2.36L10.04 2.36Q6.72 2.36 5 5.10Q3.28 7.84 3.28 13.16L3.28 13.16Q3.28 23.84 9.92 23.84L9.92 23.84Q13.16 23.84 15.40 22L15.40 22Q15.36 18.80 15.12 16.52L15.12 16.52Q10.32 16.68 8.68 16.96L8.68 16.96Q8.48 15.88 8.48 14.88Q8.48 13.88 8.52 13.52L8.52 13.52Q10.56 13.84 13.64 13.84Q16.72 13.84 18.40 13.72L18.40 13.72Q18 17.96 18 24.16ZM26.76 2.92Q26.64 2.44 26.64 1.68Q26.64 0.92 26.68 0.68L26.68 0.68Q30.20 0.24 31.92 0.24Q33.64 0.24 34.84 0.64L34.84 0.64Q35.80 8.16 41.52 23.88L41.52 23.88L43 24Q43.08 24.88 43.08 25.22Q43.08 25.56 42.96 26.24L42.96 26.24Q41.84 26.20 39.48 26.20Q37.12 26.20 36.20 26.24L36.20 26.24Q36.08 25.64 36.08 25.10Q36.08 24.56 36.16 24L36.16 24L37.56 23.88Q37.36 22.92 36.92 21.10Q36.48 19.28 36.44 19.08L36.44 19.08Q34.16 18.96 31.50 18.96Q28.84 18.96 26.52 19.12L26.52 19.12L25.40 23.88L26.92 24Q27 24.88 27 25.22Q27 25.56 26.88 26.24L26.88 26.24Q25.92 26.20 23.74 26.20Q21.56 26.20 20.68 26.24L20.68 26.24Q20.56 25.64 20.56 25.10Q20.56 24.56 20.64 24L20.64 24L22.04 23.88Q26.84 10.72 28.36 3.04L28.36 3.04L26.76 2.92ZM27.24 16.32L27.24 16.32Q28.60 16.36 31.32 16.36Q34.04 16.36 35.72 16.24L35.72 16.24Q33.84 9.12 31.76 3.08L31.76 3.08L31.52 3.08Q29.16 8.80 27.24 16.32ZM71.64 0.68Q71.68 1 71.68 1.68Q71.68 2.36 71.56 2.92L71.56 2.92L70.04 3.04Q70 4.16 70 6.36L70 6.36Q70 16.16 70.88 23.88L70.88 23.88L72.36 24Q72.44 24.64 72.44 25.10Q72.44 25.56 72.32 26.24L72.32 26.24Q70.92 26.20 69.08 26.20Q67.24 26.20 65.88 26.24L65.88 26.24Q65.76 25.64 65.76 25.18Q65.76 24.72 65.84 24L65.84 24L67.16 23.88Q67.24 21 67.24 17.30Q67.24 13.60 66.88 7L66.88 7Q66.48 7.84 64.88 11.08L64.88 11.08Q61.32 18.16 60.00 21.52L60.00 21.52Q59.20 21.84 58.30 21.84Q57.40 21.84 57.08 21.80L57.08 21.80Q55.68 18.44 53.10 13.66Q50.52 8.88 50.04 8L50.04 8Q49.72 13.68 49.72 17.62Q49.72 21.56 49.80 23.88L49.80 23.88L51.28 24Q51.36 24.64 51.36 25.10Q51.36 25.56 51.24 26.24L51.24 26.24Q49.96 26.20 48.28 26.20Q46.60 26.20 45.36 26.24L45.36 26.24Q45.24 25.64 45.24 25.18Q45.24 24.72 45.32 24L45.32 24L46.72 23.88Q47.56 16.60 47.56 6.64L47.56 6.64Q47.56 4.72 47.44 3.04L47.44 3.04L45.96 2.92Q45.84 2.36 45.84 1.68Q45.84 1 45.88 0.68L45.88 0.68Q49.16 0.60 50.84 0.48L50.84 0.48Q51.52 4.16 58.92 17.80L58.92 17.80Q65.04 5.84 66.08 0.48L66.08 0.48Q67.56 0.60 71.64 0.68L71.64 0.68ZM89.28 11.48L89.40 9.96Q90.28 9.88 90.60 9.88Q90.92 9.88 91.64 10L91.64 10Q91.60 11.24 91.60 13.20Q91.60 15.16 91.64 15.76L91.64 15.76Q91.04 15.88 90.48 15.88Q89.92 15.88 89.40 15.80L89.40 15.80L89.28 14.40Q87.12 14.32 85.72 14.32Q84.32 14.32 82.16 14.40L82.16 14.40Q82.16 19.64 82.44 23.16L82.44 23.16Q83.84 23.28 86.42 23.28Q89.00 23.28 90.48 23.08L90.48 23.08L90.60 20.36Q91.28 20.24 91.86 20.24Q92.44 20.24 92.84 20.28L92.84 20.28Q92.88 23.40 93.20 26.20L93.20 26.20L93.00 26.40Q91.04 26.20 84.42 26.20Q77.80 26.20 77.44 26.24L77.44 26.24Q77.32 25.64 77.32 25.10Q77.32 24.56 77.40 24L77.40 24L78.80 23.88Q79.16 17.68 79.16 12.66Q79.16 7.64 78.68 2.96L78.68 2.96L77.32 2.84Q77.24 2.32 77.24 1.76Q77.24 1.20 77.36 0.60L77.36 0.60Q78.36 0.64 84.68 0.64Q91.00 0.64 92.80 0.28L92.80 0.28L93.00 0.48Q92.68 4 92.64 6.16L92.64 6.16Q92.24 6.20 91.64 6.20Q91.04 6.20 90.40 6.08L90.40 6.08L90.28 3.36Q88.24 3.24 86.04 3.24Q83.84 3.24 82.40 3.36L82.40 3.36Q82.16 5.88 82.16 11.60L82.16 11.60Q82.80 11.64 84.76 11.64Q86.72 11.64 89.28 11.48L89.28 11.48ZM103.16 23.88L104.60 24Q104.68 24.64 104.68 25.10Q104.68 25.56 104.56 26.24L104.56 26.24Q103.16 26.20 101.32 26.20Q99.48 26.20 98.12 26.24L98.12 26.24Q98.00 25.64 98.00 25.18Q98.00 24.72 98.08 24L98.08 24L99.48 23.88Q99.80 19.56 99.80 12.86Q99.80 6.16 99.44 2.84L99.44 2.84L98.08 2.72Q98.00 2.08 98.00 1.62Q98.00 1.16 98.12 0.48L98.12 0.48Q99.52 0.52 101.36 0.52Q103.20 0.52 104.56 0.48L104.56 0.48Q104.68 1.08 104.68 1.54Q104.68 2 104.60 2.72L104.60 2.72L103.08 2.84Q102.80 6.36 102.80 11.84L102.80 11.84Q104.96 12.08 108.00 12.08Q111.04 12.08 113.80 11.76L113.80 11.76Q113.72 5.40 113.44 2.84L113.44 2.84L112.08 2.72Q112.00 2.08 112.00 1.62Q112.00 1.16 112.12 0.48L112.12 0.48Q113.52 0.52 115.36 0.52Q117.20 0.52 118.56 0.48L118.56 0.48Q118.68 1.08 118.68 1.54Q118.68 2 118.60 2.72L118.60 2.72L117.08 2.84Q116.80 6.08 116.80 12.88Q116.80 19.68 117.16 23.88L117.16 23.88L118.60 24Q118.68 24.64 118.68 25.10Q118.68 25.56 118.56 26.24L118.56 26.24Q117.16 26.20 115.32 26.20Q113.48 26.20 112.12 26.24L112.12 26.24Q112.00 25.64 112.00 25.18Q112.00 24.72 112.08 24L112.08 24L113.48 23.88Q113.72 20.40 113.80 14.96L113.80 14.96Q111.24 14.68 108.00 14.68Q104.76 14.68 102.80 14.96L102.80 14.96Q102.88 20.64 103.16 23.88L103.16 23.88ZM140.60 15.16L140.60 15.16Q140.60 6.52 140.20 2.84L140.20 2.84L138.80 2.72Q138.72 2.08 138.72 1.62Q138.72 1.16 138.84 0.48L138.84 0.48Q140.12 0.52 141.80 0.52Q143.48 0.52 144.72 0.48L144.72 0.48Q144.84 1.08 144.84 1.54Q144.84 2 144.76 2.72L144.76 2.72L143.44 2.84Q143.12 6.76 143.12 12.14Q143.12 17.52 142.96 19.14Q142.80 20.76 142.26 22.32Q141.72 23.88 140.76 24.80L140.76 24.80Q138.68 26.80 134.28 26.80L134.28 26.80Q128.64 26.80 126.88 23.64L126.88 23.64Q126.00 21.96 125.70 20.04Q125.40 18.12 125.40 12.32Q125.40 6.52 125.00 2.84L125.00 2.84L123.56 2.72Q123.48 2.08 123.48 1.62Q123.48 1.16 123.60 0.48L123.60 0.48Q125.00 0.52 126.84 0.52Q128.68 0.52 130.04 0.48L130.04 0.48Q130.16 1.08 130.16 1.54Q130.16 2 130.08 2.72L130.08 2.72L128.72 2.84Q128.40 6.76 128.40 15.16L128.40 15.16Q128.40 19.64 129.64 21.74Q130.88 23.84 134.56 23.84Q138.24 23.84 139.42 21.74Q140.60 19.64 140.60 15.16ZM149.76 23.88L151.36 23.76Q151.72 19.68 151.72 12.94Q151.72 6.20 151.32 3.04L151.32 3.04L149.76 2.92Q149.64 2.44 149.64 1.68Q149.64 0.92 149.68 0.68L149.68 0.68Q152.24 0.64 154.24 0.32Q156.24 0 158.48 0L158.48 0Q162.52 0 164.62 1.86Q166.72 3.72 166.72 7.48Q166.72 11.24 164.16 13.16L164.16 13.16Q168.44 14.88 168.44 19.28L168.44 19.28Q168.44 23 166.12 24.90Q163.80 26.80 159.28 26.80L159.28 26.80Q156.76 26.80 154.60 26.48L154.60 26.48Q150.80 26.20 149.68 26.12L149.68 26.12Q149.64 25.88 149.64 25.16Q149.64 24.44 149.76 23.88L149.76 23.88ZM157.04 11.32L157.04 11.32Q157.92 11.92 159.62 11.92Q161.32 11.92 162.28 10.78Q163.24 9.64 163.24 7.34Q163.24 5.04 161.96 3.66Q160.68 2.28 158.32 2.28L158.32 2.28Q156.84 2.28 155.04 3L155.04 3Q154.72 6.32 154.72 12.68Q154.72 19.04 155.04 23.12L155.04 23.12Q157.40 24.04 159.32 24.04L159.32 24.04Q164.96 24.04 164.96 19.28L164.96 19.28Q164.96 15.28 161.24 14.40L161.24 14.40Q160.04 14.60 158.90 14.60Q157.76 14.60 156.20 14.00L156.20 14.00Q156.20 12.16 157.04 11.32Z" transform="translate(12 12) scale(1)"></path></svg>