<?xml version="1.0" standalone="no"?>
<svg xmlns="http://www.w3.org/2000/svg" viewBox="0 0 118.509 36" width="118.509" height="36"><g fill="#fea701" color="#fea701" transform="translate(96.032, 6) scale(0.3809524)"><svg width="59.0" height="63.0" x="0.0" y="0.0" viewBox="0 0 59 63"><defs><style>

      .cls-3 {
        fill:currentColor;
      }
    </style></defs><path style="" d="M 31.5 0 C 14.131 0 3.7392476e-017 14.131 0 31.5 C 0 48.869 14.131 63 31.5 63 C 42.105 63 51.92325 57.70775 57.78125 48.84375 C 58.23725 48.15475 58.03275 47.208 57.34375 46.75 L 34.53125 31.5625 L 58.09375 17.53125 C 58.80375 17.10825 59.046 16.17975 58.625 15.46875 C 52.975 5.91475 42.581 -4.1182335e-017 31.5 0 z M 31.5 3 C 41.027 3 49.96375 7.85 55.21875 15.75 L 30.9375 30.1875 C 30.4955 30.4505 30.23275 30.9225 30.21875 31.4375 C 30.20575 31.9525 30.446 32.43375 30.875 32.71875 L 54.40625 48.40625 C 49.03425 55.68725 40.596 60 31.5 60 C 15.785 60 3 47.215 3 31.5 C 3 15.785 15.785 3 31.5 3 z M 28.59375 10.34375 C 25.13275 10.34375 22.3125 13.164 22.3125 16.625 C 22.3125 20.085 25.13275 22.90625 28.59375 22.90625 C 32.05375 22.90625 34.875 20.085 34.875 16.625 C 34.875 13.164 32.05375 10.34375 28.59375 10.34375 z M 28.59375 13.34375 C 30.39975 13.34375 31.875 14.818 31.875 16.625 C 31.875 18.431 30.39975 19.90625 28.59375 19.90625 C 26.78675 19.90625 25.3125 18.431 25.3125 16.625 C 25.3125 14.818 26.78675 13.34375 28.59375 13.34375 z " fill="currentColor" fill-rule="evenodd"></path></svg></g><path fill="#fe4e01" fill-rule="nonzero" d="M10.80 15.14L10.80 15.14Q8.66 16.73 5.76 16.73Q2.86 16.73 1.43 14.76Q0 12.79 0 8.74L0 8.74Q0 0.65 6.02 0.65L6.02 0.65Q7.70 0.65 8.88 1.31Q10.06 1.97 10.56 3.19L10.56 3.19Q10.70 3.62 10.70 4.13L10.70 4.13Q10.70 5.57 9.46 5.57L9.46 5.57Q8.71 5.57 8.30 5.11Q7.90 4.66 7.90 3.94Q7.90 3.22 8.18 2.81L8.18 2.81Q7.42 2.06 6.02 2.06L6.02 2.06Q4.03 2.06 3 3.71Q1.97 5.35 1.97 8.54L1.97 8.54Q1.97 14.95 5.95 14.95L5.95 14.95Q7.90 14.95 9.24 13.85L9.24 13.85Q9.22 11.93 9.07 10.56L9.07 10.56Q6.19 10.66 5.21 10.82L5.21 10.82Q5.09 10.18 5.09 9.58Q5.09 8.98 5.11 8.76L5.11 8.76Q6.34 8.95 8.18 8.95Q10.03 8.95 11.04 8.88L11.04 8.88Q10.80 11.42 10.80 15.14ZM21.67 8.09L21.67 8.09L21.58 11.54Q21.58 13.18 21.77 14.74L21.77 14.74L22.66 14.81Q22.70 15.19 22.70 15.52Q22.70 15.84 22.63 16.20L22.63 16.20Q21.94 16.22 19.92 16.44L19.92 16.44Q19.75 15.98 19.66 15.31L19.66 15.31Q17.78 16.73 16.43 16.73Q15.07 16.73 14.32 15.85Q13.56 14.98 13.56 13.36Q13.56 11.74 14.58 10.80Q15.60 9.86 17.15 9.86Q18.70 9.86 19.80 10.44L19.80 10.44Q19.82 10.18 19.82 9.58L19.82 9.58Q19.82 7.80 19.33 7.02Q18.84 6.24 17.83 6.24Q16.82 6.24 16.37 6.62L16.37 6.62Q16.56 7.01 16.56 7.58Q16.56 8.16 16.19 8.58Q15.82 9.00 15.14 9.00L15.14 9.00Q14.02 9.00 14.02 7.67Q14.02 6.34 15.02 5.62Q16.03 4.90 17.86 4.90Q19.68 4.90 20.68 5.75Q21.67 6.60 21.67 8.09ZM19.70 11.95L19.70 11.95Q18.72 11.11 17.59 11.11L17.59 11.11Q15.43 11.11 15.43 13.03L15.43 13.03Q15.43 15.00 17.14 15.00L17.14 15.00Q17.76 15.00 18.47 14.68Q19.18 14.35 19.58 13.87L19.58 13.87Q19.70 12.43 19.70 11.95ZM39.84 8.33L39.84 8.33L39.82 10.30Q39.82 12.82 40.10 14.98L40.10 14.98L40.97 15.05Q41.02 15.26 41.02 15.62Q41.02 15.98 40.94 16.39L40.94 16.39Q40.27 16.37 38.93 16.37Q37.58 16.37 37.01 16.39L37.01 16.39Q36.94 16.03 36.94 15.71Q36.94 15.38 36.98 15.05L36.98 15.05L37.80 14.98Q37.99 12.17 37.99 10.16Q37.99 8.16 37.63 7.30Q37.27 6.43 36.43 6.43L36.43 6.43Q35.23 6.43 33.86 8.02L33.86 8.02L33.84 10.30Q33.84 12.82 34.13 14.98L34.13 14.98L34.97 15.05Q35.02 15.43 35.02 15.71Q35.02 15.98 34.94 16.39L34.94 16.39Q34.27 16.37 32.93 16.37Q31.58 16.37 31.01 16.39L31.01 16.39Q30.94 16.03 30.94 15.71Q30.94 15.38 30.98 15.05L30.98 15.05L31.82 14.98Q32.02 12.17 32.02 10.16Q32.02 8.16 31.66 7.30Q31.30 6.43 30.46 6.43L30.46 6.43Q29.23 6.43 27.89 7.99L27.89 7.99Q27.86 8.62 27.86 10.91Q27.86 13.20 28.08 14.98L28.08 14.98L28.97 15.05Q29.02 15.58 29.02 15.78Q29.02 15.98 28.94 16.39L28.94 16.39Q28.27 16.37 26.98 16.37Q25.68 16.37 25.08 16.39L25.08 16.39Q25.01 16.03 25.01 15.71Q25.01 15.38 25.06 15.05L25.06 15.05L25.90 14.98Q26.11 12.58 26.11 10.57Q26.11 8.57 25.92 6.60L25.92 6.60L25.03 6.53Q24.96 6.12 24.96 5.72Q24.96 5.33 24.98 5.18L24.98 5.18Q26.21 5.16 27.96 4.97L27.96 4.97L28.08 5.09Q28.01 5.59 27.94 6.50L27.94 6.50Q28.63 5.78 29.54 5.34Q30.46 4.90 31.25 4.90L31.25 4.90Q33.22 4.90 33.72 6.74L33.72 6.74Q34.42 5.93 35.39 5.41Q36.36 4.90 37.22 4.90L37.22 4.90Q38.57 4.90 39.20 5.72Q39.84 6.55 39.84 8.33ZM47.26 11.04L47.26 11.04Q46.08 11.04 45.07 10.92L45.07 10.92Q45.12 15.00 47.78 15.00L47.78 15.00Q49.13 15.00 50.76 13.51L50.76 13.51Q51.46 14.23 51.65 15.41L51.65 15.41Q49.68 16.73 47.47 16.73Q45.26 16.73 44.18 15.20Q43.10 13.68 43.10 10.73Q43.10 7.78 44.32 6.34Q45.53 4.90 47.76 4.90L47.76 4.90Q49.42 4.90 50.50 5.90Q51.58 6.91 51.59 8.38Q51.60 9.84 51.34 10.46L51.34 10.46Q49.54 11.04 47.26 11.04ZM47.59 6.24L47.59 6.24Q45.36 6.24 45.10 9.53L45.10 9.53Q46.18 9.65 47.47 9.65Q48.77 9.65 49.49 9.41L49.49 9.41Q49.58 8.81 49.58 8.52L49.58 8.52Q49.58 7.46 49.04 6.85Q48.50 6.24 47.59 6.24ZM63.48 7.97L63.48 7.97L63.46 10.30Q63.46 12.84 63.74 14.98L63.74 14.98L64.58 15.05Q64.63 15.43 64.63 15.71Q64.63 15.98 64.56 16.39L64.56 16.39Q63.72 16.37 62.58 16.37Q61.44 16.37 60.62 16.39L60.62 16.39Q60.55 16.03 60.55 15.76Q60.55 15.48 60.60 15.05L60.60 15.05L61.44 14.98Q61.63 12.38 61.63 10.37Q61.63 8.35 61.28 7.39Q60.94 6.43 59.88 6.43L59.88 6.43Q58.54 6.43 57 7.97L57 7.97L57 10.22Q57 13.18 57.22 14.98L57.22 14.98L58.10 15.05Q58.15 15.43 58.15 15.71Q58.15 15.98 58.08 16.39L58.08 16.39Q57.24 16.37 56.14 16.37Q55.03 16.37 54.22 16.39L54.22 16.39Q54.14 16.03 54.14 15.76Q54.14 15.48 54.19 15.05L54.19 15.05L55.03 14.98Q55.25 12.72 55.25 10.80L55.25 10.80L55.25 7.51Q55.25 3.19 55.13 1.63L55.13 1.63L54.17 1.56Q54.10 1.25 54.10 0.83Q54.10 0.41 54.12 0.22L54.12 0.22Q56.30 0.10 57.24 0L57.24 0L57.34 0.12Q57 2.98 57 6.55L57 6.55Q57.72 5.83 58.73 5.36Q59.74 4.90 60.65 4.90L60.65 4.90Q63.48 4.90 63.48 7.97ZM67.61 13.27L67.61 13.27L67.63 10.70Q67.63 8.57 67.44 6.60L67.44 6.60L66.55 6.53Q66.48 6.14 66.48 5.74Q66.48 5.33 66.50 5.18L66.50 5.18Q67.73 5.16 69.48 4.97L69.48 4.97L69.60 5.09Q69.38 6.50 69.38 10.15L69.38 10.15L69.38 11.28Q69.38 13.30 69.76 14.15Q70.13 15.00 71.02 15.00L71.02 15.00Q72.26 15.00 73.73 13.54L73.73 13.54Q73.78 12.98 73.78 11.40L73.78 11.40L73.78 10.70Q73.78 8.57 73.58 6.60L73.58 6.60L72.70 6.53Q72.62 6.12 72.62 5.72Q72.62 5.33 72.65 5.18L72.65 5.18Q73.87 5.16 75.62 4.97L75.62 4.97L75.74 5.09Q75.53 6.50 75.53 10.15L75.53 10.15L75.53 10.92Q75.53 12.89 75.74 14.76L75.74 14.76L76.63 14.81Q76.68 15.34 76.68 15.59Q76.68 15.84 76.61 16.20L76.61 16.20Q75.67 16.25 73.99 16.44L73.99 16.44Q73.80 16.01 73.70 15.24L73.70 15.24Q71.90 16.73 70.39 16.73Q68.88 16.73 68.24 15.89Q67.61 15.05 67.61 13.27ZM85.99 9.86L85.99 9.86Q85.99 6.43 83.95 6.43L83.95 6.43Q82.49 6.43 81.17 7.99L81.17 7.99L81.17 14.45Q82.27 15.00 83.50 15.00L83.50 15.00Q85.99 15.00 85.99 9.86ZM81.17 6.53L81.17 6.53Q82.85 4.90 84.55 4.90Q86.26 4.90 87.14 6.29Q88.03 7.68 88.03 10.18L88.03 10.18Q88.03 13.56 86.87 15.14Q85.70 16.73 83.21 16.73L83.21 16.73Q81.65 16.73 79.06 16.10L79.06 16.10Q79.44 13.75 79.44 8.47Q79.44 3.19 79.32 1.63L79.32 1.63L78.36 1.56Q78.29 1.27 78.29 0.82Q78.29 0.36 78.31 0.22L78.31 0.22Q80.45 0.12 81.43 0L81.43 0L81.53 0.12Q81.19 3.00 81.17 6.53Z" transform="translate(0, 9.636)"></path></svg>